<?xml version="1.0" standalone="no"?><!DOCTYPE svg PUBLIC "-//W3C//DTD SVG 1.1//EN" "http://www.w3.org/Graphics/SVG/1.1/DTD/svg11.dtd"><svg t="1499309594164" class="icon" style="" viewBox="0 0 1025 1024" version="1.1" xmlns="http://www.w3.org/2000/svg" p-id="3369" xmlns:xlink="http://www.w3.org/1999/xlink" width="200.1953125" height="200"><defs><style type="text/css"></style></defs><path d="M302.327525 504.7808l-146.944-88.064c-11.776-7.168-27.136-3.328-34.048 8.448-7.168 11.776-3.328 27.136 8.448 34.304l146.944 88.064c11.776 7.168 27.136 3.328 34.048-8.704C317.943525 527.0272 314.103525 511.6672 302.327525 504.7808zM458.999525 1020.8768c5.888 1.792 12.544 1.28 18.688-2.304C472.055525 1021.6448 465.399525 1022.6688 458.999525 1020.8768zM302.327525 504.7808l-146.944-88.064c-11.776-7.168-27.136-3.328-34.048 8.448-7.168 11.776-3.328 27.136 8.448 34.304l146.944 88.064c11.776 7.168 27.136 3.328 34.048-8.704C317.943525 527.0272 314.103525 511.6672 302.327525 504.7808zM302.327525 504.7808l-146.944-88.064c-11.776-7.168-27.136-3.328-34.048 8.448-7.168 11.776-3.328 27.136 8.448 34.304l146.944 88.064c11.776 7.168 27.136 3.328 34.048-8.704C317.943525 527.0272 314.103525 511.6672 302.327525 504.7808zM302.327525 504.7808l-146.944-88.064c-11.776-7.168-27.136-3.328-34.048 8.448-7.168 11.776-3.328 27.136 8.448 34.304l146.944 88.064c11.776 7.168 27.136 3.328 34.048-8.704C317.943525 527.0272 314.103525 511.6672 302.327525 504.7808zM302.327525 504.7808l-146.944-88.064c-11.776-7.168-27.136-3.328-34.048 8.448-7.168 11.776-3.328 27.136 8.448 34.304l146.944 88.064c11.776 7.168 27.136 3.328 34.048-8.704C317.943525 527.0272 314.103525 511.6672 302.327525 504.7808zM302.327525 504.7808l-146.944-88.064c-11.776-7.168-27.136-3.328-34.048 8.448-7.168 11.776-3.328 27.136 8.448 34.304l146.944 88.064c11.776 7.168 27.136 3.328 34.048-8.704C317.943525 527.0272 314.103525 511.6672 302.327525 504.7808z" p-id="3370"></path><path d="M477.687525 1018.5472c-6.144 3.584-12.8 4.096-18.688 2.304C465.399525 1022.6688 472.055525 1021.6448 477.687525 1018.5472z" p-id="3371"></path><path d="M490.641125 954.112 490.641125 511.744l389.632-221.184 39.8848-24.1664c7.9872-5.1968 9.4976-11.8016 10.5472-16.5376 1.024-9.728-3.584-19.968-13.568-25.088l-440.32-220.16c-7.168-3.584-15.36-3.584-22.528 0l-440.32 220.16C-2.414875 235.52 0.145125 259.328 0.145125 261.888l0 469.76c0 8.704 4.608 16.896 12.032 21.504 0 0 430.848 260.352 438.272 263.68 15.104 7.424 24.576 5.376 31.744 1.792l143.36-82.944c12.288-7.168 16.384-22.784 9.216-35.072-6.912-12.288-22.784-16.384-34.816-9.472l-99.072 57.6 0-0.256L490.641125 954.112M440.465125 511.744l0 441.088L50.065125 717.568l0-427.52L440.465125 511.744zM465.553125 468.224 78.225125 248.576l387.328-193.536 387.328 193.536L465.553125 468.224z" p-id="3372"></path><path d="M812.945125 917.376l201.984-121.344c5.632-3.584 9.216-9.728 9.216-16.64l0-222.464c0-7.8336-5.888-13.312-12.288-16.384l-5.12-2.56c-0.512-0.256-1.28-0.256-1.792-0.256l1.536 0-196.352-98.048c-5.376-2.56-11.776-2.56-17.152 0l-196.096 98.048c-14.336 5.504-17.92 17.792-17.92 24.704l0 216.96c0 6.912 3.584 13.056 9.472 16.64 0 0 200.1664 120.0896 201.1904 120.3456C789.623525 916.4032 801.553125 925.2352 812.945125 917.376zM782.481125 868.224l-165.12-99.584 0-178.944 165.12 93.44L782.481125 868.224zM801.681125 650.112l-161.024-91.392 161.024-80.384 160.768 80.384L801.681125 650.112zM985.745125 768.64l-164.864 99.328 0-184.832 164.864-93.44L985.745125 768.64z" p-id="3373"></path></svg>